<svg width="56" height="56" viewBox="0 0 56 56" fill="none" xmlns="http://www.w3.org/2000/svg">
<path d="M0 10C0 4.47715 4.47715 0 10 0H46C51.5229 0 56 4.47715 56 10V46C56 51.5229 51.5228 56 46 56H10C4.47715 56 0 51.5228 0 46V10Z" fill="#1F1D2B"/>
<path d="M27.331 18.0215C29.7102 18.0215 31.6521 19.8954 31.7611 22.2477L31.766 22.4565V23.3895C31.766 23.8037 31.4302 24.1395 31.016 24.1395C30.6363 24.1395 30.3225 23.8573 30.2728 23.4913L30.266 23.3895V22.4565C30.266 20.8936 29.044 19.6157 27.5034 19.5265L27.331 19.5215H22.456C20.8939 19.5215 19.6162 20.7436 19.527 22.2841L19.522 22.4565V33.5865C19.522 35.1493 20.7439 36.4272 22.2836 36.5165L22.456 36.5215H27.341C28.8983 36.5215 30.172 35.3039 30.261 33.7693L30.266 33.5975V32.6545C30.266 32.2403 30.6018 31.9045 31.016 31.9045C31.3957 31.9045 31.7095 32.1866 31.7591 32.5527L31.766 32.6545V33.5975C31.766 35.9687 29.8992 37.9046 27.5553 38.0164L27.341 38.0215H22.456C20.0775 38.0215 18.1358 36.1474 18.0268 33.7952L18.022 33.5865V22.4565C18.022 20.0774 19.8957 18.1353 22.2473 18.0263L22.456 18.0215H27.331ZM35.326 24.5023L35.4103 24.5748L38.3383 27.4898C38.3647 27.5159 38.3878 27.5426 38.409 27.5707L38.3383 27.4898C38.3689 27.5202 38.3963 27.5526 38.4205 27.5865C38.4376 27.6103 38.4533 27.6354 38.4676 27.6614C38.4702 27.6665 38.4728 27.6715 38.4754 27.6764C38.4881 27.7004 38.4993 27.7253 38.5092 27.7508C38.5132 27.762 38.5173 27.7733 38.5211 27.7847C38.5284 27.8058 38.5345 27.8274 38.5397 27.8494C38.5421 27.8612 38.5445 27.8729 38.5467 27.8846C38.5508 27.905 38.5538 27.9261 38.5559 27.9474C38.557 27.9623 38.558 27.977 38.5586 27.9917C38.5593 28.0016 38.5595 28.0115 38.5595 28.0214L38.5586 28.0497C38.5581 28.0651 38.557 28.0805 38.5555 28.0958L38.5595 28.0214C38.5595 28.0682 38.5552 28.1141 38.547 28.1585C38.5445 28.1696 38.5421 28.1814 38.5394 28.193C38.5343 28.2162 38.5279 28.2387 38.5205 28.2607C38.5167 28.2709 38.513 28.2813 38.509 28.2915C38.4997 28.3164 38.4889 28.3405 38.4769 28.3639C38.4739 28.3692 38.4708 28.3751 38.4675 28.381C38.4331 28.4443 38.39 28.5015 38.3398 28.5517L38.3384 28.5527L35.4104 31.4687C35.1169 31.761 34.642 31.76 34.3498 31.4665C34.084 31.1997 34.0607 30.783 34.2791 30.4898L34.3519 30.4059L35.991 28.7705L25.7685 28.7714C25.3543 28.7714 25.0185 28.4356 25.0185 28.0214C25.0185 27.6417 25.3006 27.3279 25.6667 27.2782L25.7685 27.2714L35.993 27.2705L34.352 25.6378C34.0852 25.3721 34.06 24.9555 34.2772 24.6614L34.3497 24.5771C34.6153 24.3103 35.0319 24.2851 35.326 24.5023Z" fill="#EA7C69"/>
</svg>
