<svg width="92" height="80" viewBox="0 0 92 80" fill="none" xmlns="http://www.w3.org/2000/svg">
<rect width="92" height="80" fill="#DCDCDC"/>
<g clip-path="url(#clip0_0_1)">
<rect x="-12" y="-106" width="1194" height="834" rx="16" fill="#252836"/>
<rect x="-12" y="-106" width="104" height="834" rx="16" fill="#1F1D2B"/>
<path d="M0 12C0 5.37258 5.37258 0 12 0H92V80H12C5.37259 80 0 74.6274 0 68V12Z" fill="#252836"/>
<path d="M88.01 83.51C84.01 79.51 80.01 80.01 80.01 80.01H92.01V92.01C92.01 92.01 92.01 87.51 88.01 83.51Z" fill="#252836"/>
<g filter="url(#filter0_d_0_1)">
<rect x="12" y="13" width="56" height="56" rx="8" fill="#EA7C69"/>
<path d="M37.7304 31.7884C39.0004 30.7794 40.7804 30.7394 42.0894 31.6684L42.2504 31.7884L48.3394 36.6594C49.0094 37.1784 49.4204 37.9494 49.4904 38.7884L49.5004 38.9894V47.0984C49.5004 49.1884 47.8494 50.8884 45.7804 50.9984H43.7904C42.8394 50.9794 42.0704 50.2394 42.0004 49.3094L41.9904 49.1684V46.3094C41.9904 45.9984 41.7594 45.7394 41.4504 45.6884L41.3604 45.6784H38.6894C38.3704 45.6884 38.1104 45.9184 38.0704 46.2184L38.0604 46.3094V49.1594C38.0604 49.2184 38.0494 49.2884 38.0404 49.3384L38.0304 49.3594L38.0194 49.4284C37.9004 50.2794 37.2004 50.9284 36.3304 50.9894L36.2004 50.9984H34.4104C32.3204 50.9984 30.6104 49.3594 30.5004 47.2984V38.9894C30.5094 38.1384 30.8804 37.3484 31.5004 36.7984L37.7304 31.7884ZM41.3804 32.8784C40.6204 32.2684 39.5404 32.2394 38.7404 32.7684L38.5894 32.8784L32.5094 37.7794C32.1604 38.0384 31.9504 38.4284 31.9004 38.8384L31.8894 38.9984V47.0984C31.8894 48.4284 32.9294 49.5184 34.2504 49.5984H36.2004C36.4204 49.5984 36.6104 49.4494 36.6394 49.2394L36.6604 49.0594L36.6704 49.0084V46.3094C36.6704 45.2394 37.4904 44.3694 38.5404 44.2884H41.3604C42.4294 44.2884 43.2994 45.1094 43.3804 46.1594V49.1684C43.3804 49.3784 43.5304 49.5594 43.7304 49.5984H45.5894C46.9294 49.5984 48.0194 48.5694 48.0994 47.2584L48.1104 47.0984V38.9984C48.0994 38.5694 47.9204 38.1684 47.6104 37.8694L47.4804 37.7584L41.3804 32.8784Z" fill="white"/>
</g>
</g>
<defs>
<filter id="filter0_d_0_1" x="-12" y="-3" width="104" height="104" filterUnits="userSpaceOnUse" color-interpolation-filters="sRGB">
<feFlood flood-opacity="0" result="BackgroundImageFix"/>
<feColorMatrix in="SourceAlpha" type="matrix" values="0 0 0 0 0 0 0 0 0 0 0 0 0 0 0 0 0 0 127 0" result="hardAlpha"/>
<feOffset dy="8"/>
<feGaussianBlur stdDeviation="12"/>
<feColorMatrix type="matrix" values="0 0 0 0 0.917647 0 0 0 0 0.486275 0 0 0 0 0.411765 0 0 0 0.32 0"/>
<feBlend mode="normal" in2="BackgroundImageFix" result="effect1_dropShadow_0_1"/>
<feBlend mode="normal" in="SourceGraphic" in2="effect1_dropShadow_0_1" result="shape"/>
</filter>
<clipPath id="clip0_0_1">
<rect x="-12" y="-106" width="1194" height="834" rx="16" fill="white"/>
</clipPath>
</defs>
</svg>
