<svg width="56" height="56" viewBox="0 0 56 56" fill="none" xmlns="http://www.w3.org/2000/svg">
<rect width="56" height="56" rx="8" fill="#1F1D2B"/>
<path d="M32.3212 18.7581C33.8351 18.7751 35.2761 19.416 36.3085 20.5315C37.3408 21.647 37.8745 23.1398 37.7865 24.617L37.7852 30.854C37.8745 32.3763 37.3408 33.8691 36.3085 34.9846C35.2761 36.1001 33.8351 36.741 32.3127 36.7581H23.2521C20.0825 36.7581 17.7959 34.1965 17.7959 30.8991V24.617C17.7959 21.3196 20.0825 18.7581 23.2521 18.7581H32.3212ZM32.3043 20.2864H23.2521C20.9587 20.2864 19.3133 22.1296 19.3133 24.617V30.8991C19.3133 33.3865 20.9587 35.2297 23.2521 35.2297H32.3043C33.4032 35.2173 34.4491 34.7521 35.1985 33.9424C35.9479 33.1327 36.3352 32.0492 36.2691 30.8991L36.2704 24.5719C36.3352 23.4669 35.9479 22.3834 35.1985 21.5737C34.4491 20.764 33.4032 20.2988 32.3043 20.2864ZM33.8199 24.3964C34.058 24.696 34.0359 25.1207 33.7841 25.3936L33.7017 25.4706L29.5947 28.7817C28.5972 29.5648 27.219 29.6039 26.1789 28.8956L26.0176 28.7775L21.8832 25.4726C21.5549 25.2102 21.5 24.7295 21.7605 24.3989C21.9973 24.0984 22.4133 24.0253 22.7335 24.2117L22.8265 24.2754L26.9557 27.5762C27.4187 27.9396 28.0534 27.9676 28.5367 27.6649L28.6542 27.5823L32.7535 24.2774C33.0806 24.0136 33.5581 24.0669 33.8199 24.3964Z" fill="#EA7C69"/>
</svg>
