<svg width="93" height="105" viewBox="0 0 93 105" fill="none" xmlns="http://www.w3.org/2000/svg">
<rect width="93" height="105" fill="#DCDCDC"/>
<rect x="-12" y="-604" width="1194" height="834" rx="16" fill="#252836"/>
<rect x="-12" y="-604" width="104" height="834" rx="16" fill="#1F1D2B"/>
<path d="M88.0098 -6.48999C84.0098 -10.49 80.0098 -9.98999 80.0098 -9.98999H92.0098V2.01001C92.0098 2.01001 92.0098 -2.48999 88.0098 -6.48999Z" fill="#1F1D2B"/>
<path d="M0 24C0 17.3726 5.37258 12 12 12H92V92H12C5.37259 92 0 86.6274 0 80V24Z" fill="#252836"/>
<path d="M88.5 8C92.5 4 92 0 92 0V12H80C80 12 84.5 12 88.5 8Z" fill="#252836"/>
<path d="M88.0098 95.51C84.0098 91.51 80.0098 92.01 80.0098 92.01H92.0098V104.01C92.0098 104.01 92.0098 99.51 88.0098 95.51Z" fill="#252836"/>
<g filter="url(#filter0_d_0_1)">
<rect x="12" y="25" width="56" height="56" rx="8" fill="#EA7C69"/>
<path d="M40.6161 43C41.3251 42.9997 42.0041 43.2806 42.4983 43.7787C42.9925 44.2768 43.2599 44.9497 43.2383 45.5777L43.2468 45.7254C43.2641 45.8708 43.3124 46.0112 43.3908 46.1405C43.5435 46.3957 43.7935 46.5808 44.0857 46.6551C44.3779 46.7295 44.6882 46.6869 44.9821 46.5184L45.146 46.4355C46.3759 45.869 47.8511 46.3192 48.5333 47.4793L49.1465 48.5217C49.1627 48.5492 49.1769 48.5776 49.1892 48.6067L49.2461 48.7184C49.7945 49.8652 49.4043 51.2293 48.3624 51.9223L48.1051 52.0807C47.9706 52.1726 47.8585 52.2926 47.7742 52.4368C47.6218 52.6929 47.58 52.998 47.658 53.2844C47.736 53.5708 47.9272 53.8149 48.2174 53.9793L48.3843 54.0841C48.8887 54.4297 49.253 54.9391 49.4119 55.523C49.5912 56.1817 49.495 56.8833 49.1399 57.4804L48.4803 58.557L48.3808 58.7089C47.6058 59.8008 46.1011 60.1344 44.9527 59.485L44.8166 59.4163C44.6746 59.3541 44.5214 59.3199 44.382 59.316C44.0786 59.3146 43.7872 59.432 43.5727 59.6422C43.3582 59.8524 43.2383 60.1379 43.2391 60.4698L43.231 60.6414C43.12 61.9703 41.9845 63 40.6164 63H39.3811C37.9322 63 36.7577 61.8493 36.7591 60.4753L36.7506 60.3277C36.7334 60.1822 36.685 60.0418 36.6027 59.9057C36.4534 59.65 36.2059 59.4633 35.9154 59.3871C35.6248 59.3109 35.3153 59.3516 35.0157 59.5213L34.8376 59.6084C34.2746 59.8565 33.6395 59.9023 33.0445 59.7366C32.3731 59.5497 31.8054 59.1083 31.4741 58.5224L30.8368 57.4442L30.752 57.2844C30.1716 56.0841 30.6265 54.6412 31.7811 53.9875L31.8865 53.9228C32.1949 53.7137 32.3799 53.3688 32.3799 53C32.3799 52.599 32.1615 52.2284 31.7795 52.0115L31.6245 51.9141C30.51 51.1548 30.1695 49.6805 30.8599 48.507L31.5092 47.4617C32.2313 46.2338 33.8316 45.8102 35.0624 46.5017L35.1956 46.5713C35.3314 46.6324 35.479 46.6648 35.621 46.6663C36.2474 46.6663 36.7578 46.1735 36.7672 45.5418L36.7758 45.3478C36.827 44.7472 37.0931 44.1827 37.528 43.7546C38.0186 43.2716 38.6855 43 39.3811 43H40.6161ZM40.6164 44.4477H39.3811C39.0786 44.4477 38.7887 44.5658 38.5753 44.7758C38.3863 44.962 38.2706 45.2074 38.2503 45.4366L38.2368 45.7415C38.1334 47.0709 36.9997 48.1142 35.6133 48.114C35.2559 48.1103 34.9036 48.0329 34.5443 47.8703L34.3519 47.7709C33.8038 47.4632 33.1049 47.6482 32.7806 48.1992L32.1313 49.2446C31.8338 49.7504 31.9826 50.3947 32.4432 50.7092L32.704 50.871C33.422 51.3467 33.8575 52.1429 33.8575 53C33.8575 53.8446 33.4341 54.634 32.7022 55.1296L32.5464 55.2256C32.0335 55.5163 31.8356 56.144 32.074 56.6383L32.1303 56.7449L32.7595 57.8084C32.9073 58.0696 33.1552 58.2624 33.4484 58.344C33.7083 58.4164 33.9857 58.3964 34.2021 58.3018L34.3108 58.2497C34.911 57.9066 35.6261 57.8126 36.2974 57.9886C36.9686 58.1645 37.5403 58.5959 37.8794 59.1768C38.0618 59.478 38.1772 59.8132 38.2219 60.1985L38.2421 60.552C38.3043 61.1145 38.7905 61.5523 39.3811 61.5523H40.6164C41.2137 61.5523 41.7099 61.1023 41.7565 60.5511L41.7621 60.4421C41.7588 59.7585 42.0345 59.1019 42.5279 58.6185C43.0212 58.1351 43.6914 57.865 44.4053 57.8686C44.7556 57.8778 45.1004 57.9547 45.4528 58.11L45.7687 58.2682C46.2647 58.4814 46.8529 58.3258 47.1511 57.9067L47.2236 57.7957L47.868 56.7436C48.0203 56.4875 48.0621 56.1824 47.9841 55.896C47.915 55.6422 47.7566 55.4207 47.5645 55.2882L47.2922 55.1195C46.7716 54.7748 46.3932 54.2563 46.2302 53.6574C46.0509 52.9987 46.1471 52.2971 46.4946 51.7126C46.6849 51.3872 46.9464 51.1073 47.2873 50.8753L47.448 50.7761C47.9601 50.4827 48.1578 49.855 47.9212 49.3588L47.8505 49.2253L47.8378 49.1973L47.253 48.2021C46.9764 47.7318 46.4008 47.5285 45.9125 47.6891L45.8015 47.7327L45.6983 47.7842C45.1001 48.1294 44.3863 48.2274 43.7143 48.0564C43.0423 47.8855 42.4673 47.4596 42.1181 46.8762C41.9357 46.575 41.8203 46.2398 41.7756 45.8545L41.7624 45.6025C41.7713 45.2992 41.6546 45.0054 41.4387 44.7878C41.2229 44.5703 40.9264 44.4477 40.6164 44.4477ZM40.0032 49.7318C41.8455 49.7318 43.339 51.195 43.339 53C43.339 54.805 41.8455 56.2682 40.0032 56.2682C38.161 56.2682 36.6675 54.805 36.6675 53C36.6675 51.195 38.161 49.7318 40.0032 49.7318ZM40.0032 51.1796C38.977 51.1796 38.1452 51.9946 38.1452 53C38.1452 54.0054 38.977 54.8204 40.0032 54.8204C41.0294 54.8204 41.8613 54.0054 41.8613 53C41.8613 51.9946 41.0294 51.1796 40.0032 51.1796Z" fill="#FAFAFA"/>
</g>
<defs>
<filter id="filter0_d_0_1" x="-12" y="9" width="104" height="104" filterUnits="userSpaceOnUse" color-interpolation-filters="sRGB">
<feFlood flood-opacity="0" result="BackgroundImageFix"/>
<feColorMatrix in="SourceAlpha" type="matrix" values="0 0 0 0 0 0 0 0 0 0 0 0 0 0 0 0 0 0 127 0" result="hardAlpha"/>
<feOffset dy="8"/>
<feGaussianBlur stdDeviation="12"/>
<feColorMatrix type="matrix" values="0 0 0 0 0.917647 0 0 0 0 0.486275 0 0 0 0 0.411765 0 0 0 0.32 0"/>
<feBlend mode="normal" in2="BackgroundImageFix" result="effect1_dropShadow_0_1"/>
<feBlend mode="normal" in="SourceGraphic" in2="effect1_dropShadow_0_1" result="shape"/>
</filter>
</defs>
</svg>
