<svg width="56" height="56" viewBox="0 0 56 56" fill="none" xmlns="http://www.w3.org/2000/svg">
<rect width="56" height="56" rx="8" fill="#1F1D2B"/>
<path d="M28.6161 18C29.3251 17.9997 30.0041 18.2806 30.4983 18.7787C30.9925 19.2768 31.2599 19.9497 31.2383 20.5777L31.2468 20.7254C31.2641 20.8708 31.3124 21.0112 31.3908 21.1405C31.5435 21.3957 31.7935 21.5808 32.0857 21.6551C32.3779 21.7295 32.6882 21.6869 32.9821 21.5184L33.146 21.4355C34.3759 20.869 35.8511 21.3192 36.5333 22.4793L37.1465 23.5217C37.1627 23.5492 37.1769 23.5776 37.1892 23.6067L37.2461 23.7184C37.7945 24.8652 37.4043 26.2293 36.3624 26.9223L36.1051 27.0807C35.9706 27.1726 35.8585 27.2926 35.7742 27.4368C35.6218 27.6929 35.58 27.998 35.658 28.2844C35.736 28.5708 35.9272 28.8149 36.2174 28.9793L36.3843 29.0841C36.8887 29.4297 37.253 29.9391 37.4119 30.523C37.5912 31.1817 37.495 31.8833 37.1399 32.4804L36.4803 33.557L36.3808 33.7089C35.6058 34.8008 34.1011 35.1344 32.9527 34.485L32.8166 34.4163C32.6746 34.3541 32.5214 34.3199 32.382 34.316C32.0786 34.3146 31.7872 34.432 31.5727 34.6422C31.3582 34.8524 31.2383 35.1379 31.2391 35.4698L31.231 35.6414C31.12 36.9703 29.9845 38 28.6164 38H27.3811C25.9322 38 24.7577 36.8493 24.7591 35.4753L24.7506 35.3277C24.7334 35.1822 24.685 35.0418 24.6027 34.9057C24.4534 34.65 24.2059 34.4633 23.9154 34.3871C23.6248 34.3109 23.3153 34.3516 23.0157 34.5213L22.8376 34.6084C22.2746 34.8565 21.6395 34.9023 21.0445 34.7366C20.3731 34.5497 19.8054 34.1083 19.4741 33.5224L18.8368 32.4442L18.752 32.2844C18.1716 31.0841 18.6265 29.6412 19.7811 28.9875L19.8865 28.9228C20.1949 28.7137 20.3799 28.3688 20.3799 28C20.3799 27.599 20.1615 27.2284 19.7795 27.0115L19.6245 26.9141C18.51 26.1548 18.1695 24.6805 18.8599 23.507L19.5092 22.4617C20.2313 21.2338 21.8316 20.8102 23.0624 21.5017L23.1956 21.5713C23.3314 21.6324 23.479 21.6648 23.621 21.6663C24.2474 21.6663 24.7578 21.1735 24.7672 20.5418L24.7758 20.3478C24.827 19.7472 25.0931 19.1827 25.528 18.7546C26.0186 18.2716 26.6855 18 27.3811 18H28.6161ZM28.6164 19.4477H27.3811C27.0786 19.4477 26.7887 19.5658 26.5753 19.7758C26.3863 19.962 26.2706 20.2074 26.2503 20.4366L26.2368 20.7415C26.1334 22.0709 24.9997 23.1142 23.6133 23.114C23.2559 23.1103 22.9036 23.0329 22.5443 22.8703L22.3519 22.7709C21.8038 22.4632 21.1049 22.6482 20.7806 23.1992L20.1313 24.2446C19.8338 24.7504 19.9826 25.3947 20.4432 25.7092L20.704 25.871C21.422 26.3467 21.8575 27.1429 21.8575 28C21.8575 28.8446 21.4341 29.634 20.7022 30.1296L20.5464 30.2256C20.0335 30.5163 19.8356 31.144 20.074 31.6383L20.1303 31.7449L20.7595 32.8084C20.9073 33.0696 21.1552 33.2624 21.4484 33.344C21.7083 33.4164 21.9857 33.3964 22.2021 33.3018L22.3108 33.2497C22.911 32.9066 23.6261 32.8126 24.2974 32.9886C24.9686 33.1645 25.5403 33.5959 25.8794 34.1768C26.0618 34.478 26.1772 34.8132 26.2219 35.1985L26.2421 35.552C26.3043 36.1145 26.7905 36.5523 27.3811 36.5523H28.6164C29.2137 36.5523 29.7099 36.1023 29.7565 35.5511L29.7621 35.4421C29.7588 34.7585 30.0345 34.1019 30.5279 33.6185C31.0212 33.1351 31.6914 32.865 32.4053 32.8686C32.7556 32.8778 33.1004 32.9547 33.4528 33.11L33.7687 33.2682C34.2647 33.4814 34.8529 33.3258 35.1511 32.9067L35.2236 32.7957L35.868 31.7436C36.0203 31.4875 36.0621 31.1824 35.9841 30.896C35.915 30.6422 35.7566 30.4207 35.5645 30.2882L35.2922 30.1195C34.7716 29.7748 34.3932 29.2563 34.2302 28.6574C34.0509 27.9987 34.1471 27.2971 34.4946 26.7126C34.6849 26.3872 34.9464 26.1073 35.2873 25.8753L35.448 25.7761C35.9601 25.4827 36.1578 24.855 35.9212 24.3588L35.8505 24.2253L35.8378 24.1973L35.253 23.2021C34.9764 22.7318 34.4008 22.5285 33.9125 22.6891L33.8015 22.7327L33.6983 22.7842C33.1001 23.1294 32.3863 23.2274 31.7143 23.0564C31.0423 22.8855 30.4673 22.4596 30.1181 21.8762C29.9357 21.575 29.8203 21.2398 29.7756 20.8545L29.7624 20.6025C29.7713 20.2992 29.6546 20.0054 29.4387 19.7878C29.2229 19.5703 28.9264 19.4477 28.6164 19.4477ZM28.0032 24.7318C29.8455 24.7318 31.339 26.195 31.339 28C31.339 29.805 29.8455 31.2682 28.0032 31.2682C26.161 31.2682 24.6675 29.805 24.6675 28C24.6675 26.195 26.161 24.7318 28.0032 24.7318ZM28.0032 26.1796C26.977 26.1796 26.1452 26.9946 26.1452 28C26.1452 29.0054 26.977 29.8204 28.0032 29.8204C29.0294 29.8204 29.8613 29.0054 29.8613 28C29.8613 26.9946 29.0294 26.1796 28.0032 26.1796Z" fill="#EA7C69"/>
</svg>
